PathFileType	4	(X/Y/Z)	/Users/niels/Desktop/University/Third Semester/Perception and Action/Exam/Gymnastics Motion Tracking/Code for Gym Tracking/Analyzed Data/Backflip/id1_1_baseline_Sports2D/id1_1_baseline_Sports2D_px_person00.trc
DataRate	CameraRate	NumFrames	NumMarkers	Units	OrigDataRate	OrigDataStartFrame	OrigNumFrames
60.02098635886674	60.02098635886674	9	22	m	60.02098635886674	143	287
Frame#	Time	Hip			RHip			RKnee			RAnkle			RBigToe			RSmallToe			RHeel			LHip			LKnee			LAnkle			LBigToe			LSmallToe			LHeel			Neck			Head			Nose			RShoulder			RElbow			RWrist			LShoulder			LElbow			LWrist		
		X1	Y1	Z1	X2	Y2	Z2	X3	Y3	Z3	X4	Y4	Z4	X5	Y5	Z5	X6	Y6	Z6	X7	Y7	Z7	X8	Y8	Z8	X9	Y9	Z9	X10	Y10	Z10	X11	Y11	Z11	X12	Y12	Z12	X13	Y13	Z13	X14	Y14	Z14	X15	Y15	Z15	X16	Y16	Z16	X17	Y17	Z17	X18	Y18	Z18	X19	Y19	Z19	X20	Y20	Z20	X21	Y21	Z21	X22	Y22	Z22
143	2.3824999999999994	1.0460009259114598	-0.5786379836694825	0.0	1.0411093632585842	-0.5769770070952253	0.0	1.0450522162519122	-0.6771196352434536	0.0	1.0304325810561519	-0.7682575672322113	0.0	1.0669282106025682	-0.7742347698497178	0.0	1.0531335241640833	-0.7773293942046595	0.0	1.0215803405948516	-0.7759354670419749	0.0	1.0526375844623097	-0.5765167139342023	0.0	1.0641918194802682	-0.6763314429944536	0.0	1.0401770708073075	-0.7624758873883494	0.0	1.0717687283985409	-0.7728802049211877	0.0	1.0667078513038424	-0.7657264480019417	0.0	1.0314648512511224	-0.7708173094172788	0.0	1.070395418971914	-0.4496080003392295	0.0	1.0902973068827142	-0.3885438369703546	0.0	1.1034671450635043	-0.4268578642550512	0.0	1.0725322507678563	-0.4656854520271038	0.0	1.1183861539784268	-0.5159863871492061	0.0	1.1661503940946953	-0.5515165614140015	0.0	1.0607222748249572	-0.4643308527237144	0.0	1.0639513631571798	-0.5172222558831611	0.0	1.0811857613577307	-0.5710135226324757	0.0
144	2.3991608391608388	1.046545566309541	-0.5806050455634917	0.0	1.041782001770712	-0.5791931578848574	0.0	1.0454310347244173	-0.6788469857044723	0.0	1.0302438786676458	-0.7696758045308048	0.0	1.0660819452038277	-0.7761791607890209	0.0	1.051684947349004	-0.7788741010707494	0.0	1.0212452503736438	-0.7772960231014652	0.0	1.0530885991066297	-0.5788523153472631	0.0	1.0644380668373625	-0.6780666589877435	0.0	1.0400694044578014	-0.7640328521107023	0.0	1.071622270968222	-0.7736313598362248	0.0	1.066284934081629	-0.7669525354437774	0.0	1.0309752553854699	-0.7721910073248466	0.0	1.0706258140379836	-0.451334558213036	0.0	1.0903845561626313	-0.39049719656332316	0.0	1.1035769437443956	-0.4285407615849957	0.0	1.0721745070769975	-0.4680922541234699	0.0	1.1137166758583938	-0.5230050544046608	0.0	1.1582382559415048	-0.5632781404804043	0.0	1.0606609453893747	-0.4662651876303313	0.0	1.0644232733079642	-0.5227834801356323	0.0	1.0822153119427707	-0.5749360006069041	0.0
145	2.415821678321678	1.0472364412677482	-0.5826665374621653	0.0	1.0425962447204145	-0.5815599458897017	0.0	1.0458158854381046	-0.6807235963565501	0.0	1.0301180732660264	-0.7712317590033329	0.0	1.065299776791172	-0.7784485073902132	0.0	1.0501784614658063	-0.7806652271032403	0.0	1.0210011531804832	-0.7788567022953469	0.0	1.053677136977495	-0.5813561595277944	0.0	1.0645981370991175	-0.6799335163695122	0.0	1.040015347184743	-0.7657178047590314	0.0	1.0715403105012404	-0.7744668677041358	0.0	1.065851836195002	-0.7683096365271399	0.0	1.0304803829879765	-0.7736720942456985	0.0	1.0708505192989537	-0.45300092156662736	0.0	1.0904640115493316	-0.3924914623975921	0.0	1.103698925500279	-0.43020768326713876	0.0	1.0716495084071957	-0.4703200883461553	0.0	1.108488572796168	-0.5293297873019628	0.0	1.1495164579719779	-0.5740162719982759	0.0	1.0608590267769584	-0.4681118981117822	0.0	1.0645016052278118	-0.5278265541284969	0.0	1.0822547755099292	-0.5794304737952932	0.0
146	2.432482517482517	1.048057141799771	-0.5848084196124369	0.0	1.0435333302105236	-0.5840531253204042	0.0	1.046190315257259	-0.6827225447682636	0.0	1.0300513795971777	-0.7728982007388023	0.0	1.064620583395934	-0.7809889438233976	0.0	1.048722375073416	-0.7826636354186852	0.0	1.0208410761823505	-0.7805953887291206	0.0	1.0543803179166946	-0.5840013484888824	0.0	1.0646668285955116	-0.6819043326424461	0.0	1.0400248342556355	-0.7674836405285023	0.0	1.0715428824159372	-0.7754027420223459	0.0	1.0654373292156323	-0.7697967280660707	0.0	1.0299985081432486	-0.7752395704340024	0.0	1.071081347147496	-0.4545869844483463	0.0	1.090530285502649	-0.39449691332796066	0.0	1.1038422453565295	-0.43184418355297266	0.0	1.0710039234760969	-0.4723545526179014	0.0	1.1027993681338846	-0.5348507007014349	0.0	1.140071947072575	-0.5835411986504739	0.0	1.061301654812188	-0.4698631246039698	0.0	1.0642328021824334	-0.5322926982784225	0.0	1.0815450490073117	-0.5842468433204455	0.0
147	2.449143356643356	1.048985411630278	-0.5870089905288675	0.0	1.044571253367536	-0.5866406022312946	0.0	1.0465454488353785	-0.6848092547952603	0.0	1.030043443983622	-0.7746419981244983	0.0	1.064090545036308	-0.7836981980735811	0.0	1.0474544431629342	-0.7848075711414182	0.0	1.0207601222506828	-0.782475930718731	0.0	1.05516735076228	-0.5867510232883842	0.0	1.0646487291846458	-0.6839435291221817	0.0	1.0401013997990791	-0.7692812358703813	0.0	1.071631595725981	-0.7764645259350488	0.0	1.065073851709741	-0.7714201106423242	0.0	1.0295507861717517	-0.7768763719709115	0.0	1.0713337648577024	-0.4560722139358425	0.0	1.0905792748165581	-0.3964869781019746	0.0	1.1040142156128232	-0.4334385283123133	0.0	1.070289738947173	-0.47418543867612706	0.0	1.0967721489881574	-0.539476827272728	0.0	1.1300075915741612	-0.5916741893876745	0.0	1.0619539612122637	-0.47151148482813104	0.0	1.0636936623257243	-0.5361348383438476	0.0	1.080308987492252	-0.5890739521038628	0.0
148	2.4658041958041954	1.0499965985942539	-0.5892358766198408	0.0	1.0456857302905485	-0.5892834575620978	0.0	1.0468806954353758	-0.6869408632775914	0.0	1.0300997011012833	-0.7764300545756916	0.0	1.0637598986156755	-0.7864354461915054	0.0	1.0465182533052846	-0.7870297592396518	0.0	1.020760613216189	-0.784463826733274	0.0	1.0560067879851593	-0.5895592573054445	0.0	1.0645535683031147	-0.6860093678788564	0.0	1.040236394513189	-0.7710684755388295	0.0	1.0717834690710162	-0.777698101569592	0.0	1.064788688193424	-0.7732007181455312	0.0	1.0291513107441892	-0.7785771589210141	0.0	1.0716232212811898	-0.4574342249311366	0.0	1.0906131209463932	-0.39843944059703545	0.0	1.104223599493472	-0.4349792390944812	0.0	1.0695556484417055	-0.4758020454192483	0.0	1.0905442050917675	-0.5431361666579414	0.0	1.1194441056708788	-0.5982552142949762	0.0	1.0627695096135956	-0.47304847322671445	0.0	1.0629351995678518	-0.5393202603485834	0.0	1.0786281923003216	-0.5935887699378212	0.0
149	2.482465034965035	1.051069421647652	-0.5914430449378445	0.0	1.0468503988160918	-0.591933791191861	0.0	1.0472001288628472	-0.6890654460823473	0.0	1.0302278340903048	-0.7782245033943925	0.0	1.0636636439942864	-0.789041739364236	0.0	1.04602106253541	-0.7892624902592404	0.0	1.020849126066135	-0.7865271072069046	0.0	1.0568752838010174	-0.5923699657633328	0.0	1.0643921221822288	-0.688054404749515	0.0	1.0404104081838959	-0.7728062720054717	0.0	1.0719589774500309	-0.779149184142498	0.0	1.0645972024967183	-0.7751600923488463	0.0	1.028804761641276	-0.7803404233033	0.0	1.0719608232776368	-0.45865174839693296	0.0	1.0906482543051081	-0.4003322639378812	0.0	1.1044829811777308	-0.4364524386133572	0.0	1.0688413884181303	-0.47719286002586997	0.0	1.084253559579019	-0.5457769238919028	0.0	1.108518990846013	-0.6031457261692579	0.0	1.0637015736252515	-0.47446519851909585	0.0	1.061990285546201	-0.5418254508512889	0.0	1.0765106829814408	-0.5974847219000543	0.0
150	2.4991258741258737	1.052189712431465	-0.5935674069258093	0.0	1.0480373172699866	-0.5945272929341293	0.0	1.0475071096946753	-0.6911200869253717	0.0	1.03043197173179	-0.7799764102153773	0.0	1.0638001141095894	-0.7914067860842938	0.0	1.045991568622319	-0.7914423320682663	0.0	1.0210299046037297	-0.7886301951486595	0.0	1.0577639396249543	-0.5951110011732137	0.0	1.0641765025424323	-0.6900237601085848	0.0	1.04060027078255	-0.7744507254641524	0.0	1.0721259136913477	-0.780832152519289	0.0	1.064505787523364	-0.7773031904645815	0.0	1.0285169481423486	-0.782154887310789	0.0	1.072350860678745	-0.45970743613898474	0.0	1.0907198028673062	-0.4021374275550392	0.0	1.1048077818493418	-0.43784104093425075	0.0	1.068175680119024	-0.4783453206415741	0.0	1.0780278623659787	-0.5473673223407272	0.0	1.0973803141955456	-0.6062337740468596	0.0	1.0647116038974604	-0.4757513003731102	0.0	1.0609036091157125	-0.5436291156790097	0.0	1.0739827096297365	-0.600494417894615	0.0
151	2.5157867132867127	1.0533464897335338	-0.5955297207425565	0.0	1.0492179157044412	-0.5969773141637991	0.0	1.0478012045044096	-0.6930325833709295	0.0	1.0307103726447422	-0.7816282410461574	0.0	1.064129459628493	-0.7935232153753883	0.0	1.0463796114923367	-0.7935238664614757	0.0	1.021303075584403	-0.7907335042641246	0.0	1.0586753007072196	-0.5976904122957811	0.0	1.0639213501836882	-0.6918545273765088	0.0	1.040782793332718	-0.7759543295328623	0.0	1.0722729902159795	-0.7827253173760799	0.0	1.0645167308907983	-0.7796171583241719	0.0	1.0282991197323195	-0.7839934339352432	0.0	1.0727929283000865	-0.4605855363813027	0.0	1.0908736959263303	-0.40381863990931516	0.0	1.1052129907793116	-0.4391247859791417	0.0	1.0675787722654917	-0.4792467268138248	0.0	1.0719810029605923	-0.5478969486699867	0.0	1.0861817690876088	-0.6074458549503561	0.0	1.0657710499038975	-0.47689116682602506	0.0	1.0597224667205916	-0.544714347174892	0.0	1.0710683386631836	-0.6024118514266739	0.0
